<svg width="24" height="24" viewBox="0 0 24 24" fill="none" xmlns="http://www.w3.org/2000/svg">
<path d="M22.8512 2.85286C22.721 2.55192 22.5051 2.29591 22.2305 2.11667C21.9559 1.93743 21.6347 1.84287 21.3068 1.84475H2.68918C2.3616 1.8454 2.04126 1.94109 1.767 2.12022C1.49274 2.29934 1.27635 2.55421 1.14409 2.8539C1.01183 3.15358 0.969378 3.48521 1.02188 3.80855C1.07439 4.13189 1.2196 4.43304 1.43989 4.67548L1.44835 4.685L8.61296 12.3351V20.4624C8.61289 20.7687 8.69595 21.0693 8.85329 21.3321C9.01063 21.5949 9.23635 21.8101 9.50638 21.9548C9.77641 22.0994 10.0806 22.168 10.3866 22.1533C10.6926 22.1386 10.9888 22.0412 11.2438 21.8714L14.6288 19.614C14.8608 19.4594 15.0511 19.2499 15.1827 19.0041C15.3143 18.7583 15.3831 18.4838 15.383 18.205V12.3351L22.5487 4.685L22.5571 4.67548C22.7798 4.43415 22.9264 4.13259 22.9787 3.80845C23.031 3.48432 22.9866 3.15195 22.8512 2.85286ZM13.9211 11.4265C13.7747 11.5817 13.6923 11.7865 13.6905 11.9998V18.205L10.3055 20.4624V11.9998C10.3055 11.7849 10.2238 11.5781 10.077 11.4212L2.68918 3.53726H21.3068L13.9211 11.4265Z" fill="currentColor"/>
</svg>
