<?xml version="1.0" encoding="UTF-8" standalone="no"?><!DOCTYPE svg PUBLIC "-//W3C//DTD SVG 1.1//EN" "http://www.w3.org/Graphics/SVG/1.1/DTD/svg11.dtd"><svg width="100%" height="100%" viewBox="0 0 180 44" version="1.1" xmlns="http://www.w3.org/2000/svg" xmlns:xlink="http://www.w3.org/1999/xlink" xml:space="preserve" xmlns:serif="http://www.serif.com/" style="fill-rule:evenodd;clip-rule:evenodd;stroke-linejoin:round;stroke-miterlimit:2;"><g><path d="M4.698,0.597l0,13.172l4.161,0l0,3.296l-8.358,0l0,-16.468l4.198,0Z" style="fill:url(#_Linear1);fill-rule:nonzero;stroke:#fff;stroke-width:1px;"/><path d="M16.159,0.597l2.05,16.468l-3.667,0l-0.179,-2.96l-1.285,0l-0.213,2.96l-3.709,0l1.821,-16.468l5.181,0Zm-1.897,10.589c-0.181,-1.865 -0.363,-4.17 -0.544,-6.917c-0.363,3.153 -0.59,5.459 -0.681,6.917l1.225,0Z" style="fill:url(#_Linear2);fill-rule:nonzero;stroke:#fff;stroke-width:1px;"/><path d="M20.564,0.5l9.631,0c3.042,0 5.346,0.27 6.913,0.811c1.567,0.54 3.023,1.537 3.795,3.282c0.679,1.534 0.424,11.143 0.424,11.143c0,0 0.064,2.674 -2.024,4.249c2.786,3.234 2.501,4.009 2.732,9.008l0,3.928c0,8.971 -2.805,9.721 -10.304,9.951l-11.167,0l0,-42.372Zm9.653,7.25l0,9.422c0.413,-0.017 1.515,-0.292 1.775,-0.824c0.26,-0.532 0.39,-2.054 0.39,-4.567c0,-1.326 -0.107,-2.255 -0.321,-2.787c-0.214,-0.532 -0.493,-0.868 -0.837,-1.008c-0.344,-0.14 -0.013,-0.218 -1.006,-0.236Zm0,17.017l0,9.856c1.361,-0.052 1.228,-0.297 1.603,-0.733c0.375,-0.436 0.562,-0.509 0.562,-2.219l0,-3.952c0,-1.815 -0.168,-1.914 -0.504,-2.298c-0.336,-0.384 -0.223,-0.602 -1.66,-0.654Z" style="fill:url(#_Linear3);fill-rule:nonzero;stroke:#fff;stroke-width:1px;"/><path d="M43.925,0.5l7.077,0c4.718,0 6.912,0.201 8.583,0.602c1.67,0.401 3.032,1.426 4.085,3.075c1.053,1.649 0.953,12.64 0.861,13.993c-0.089,1.316 0.337,5.749 -2.792,6.587c1.979,0.541 2.51,3.52 2.51,6.94l0,11.175l-8.887,0l0.061,-4.839c0,-2.268 -0.062,-3.607 -0.386,-4.147c-0.325,-0.541 -0.402,-1.676 -1.78,-1.676l-0.056,10.662l-9.277,0l0,-42.372Zm8.998,10.25l0,9.422c1.124,0 0.86,-0.199 1.311,-0.539c0.451,-0.34 0.677,-1.444 0.677,-3.311l0,-2.329c0,-1.343 -0.218,-2.225 -0.653,-2.643c-0.435,-0.419 -0.179,-0.6 -1.335,-0.6Z" style="fill:url(#_Linear4);fill-rule:nonzero;stroke:#fff;stroke-width:1px;"/><rect x="66.473" y="0.5" width="8.464" height="42.372" style="fill:url(#_Linear5);fill-rule:nonzero;stroke:#fff;stroke-width:1px;"/><path d="M97.632,0.5l0,42.372l-8.167,0l-4.847,-19.262l0,19.262l-7.791,0l0,-42.372l7.791,0l5.224,19.079l0,-19.079l7.791,0Z" style="fill:url(#_Linear6);fill-rule:nonzero;stroke:#fff;stroke-width:1px;"/><path d="M120.104,16.098l-8.291,0l0,-3.847c0,-2.425 -0.088,-3.943 -0.265,-4.554c-0.177,-0.611 -0.596,-0.916 -1.258,-0.916c-0.574,0 -0.964,0.262 -1.17,0.785c-0.206,0.523 -0.309,1.867 -0.309,4.03l0,20.336c0,1.902 0.103,3.154 0.309,3.756c0.206,0.602 0.618,0.903 1.236,0.903c0.677,0 1.137,-0.34 1.379,-1.021c0.243,-0.68 0.364,-2.007 0.364,-3.978l0,-5.025l-1.876,0l0,-6.438l9.88,0l0.035,16.041c-0.401,3.618 -3.261,6.194 -5.883,6.702l-7.613,0c-4.707,-0.12 -7.06,-4.161 -7.122,-6.525l0,-20.589c0,-4.048 0.184,-6.988 0.552,-8.82c0.368,-1.832 0.423,-3.511 2.167,-5.038c1.743,-1.527 4.998,-1.29 7.764,-1.29c2.722,0 5.821,0.026 7.616,1.352c1.795,1.326 1.433,0.754 1.977,2.578c0.544,1.823 0.507,6.254 0.507,9.726l0,1.832Z" style="fill:url(#_Linear7);fill-rule:nonzero;stroke:#fff;stroke-width:1px;"/><path d="M143.233,0.591l0,28.318c0.421,14.239 -7.71,14.048 -11.196,13.944c-3.764,-0.112 -10.141,-0.125 -10.007,-14.189l0,-28.073l8.018,0l1,31.773c0,1.849 0.907,1.318 1.518,1.318c0.698,0 1.649,0.243 1.649,-1.868l0,-31.223l9.018,0Z" style="fill:url(#_Linear8);fill-rule:nonzero;stroke:#fff;stroke-width:1px;"/><path d="M145.138,0.5l18.373,0l0,8.48l-7.354,0l0,8.035l6.883,0l0,8.061l-6.883,0l0,9.317l8.087,0l0,8.48l-19.105,0l0,-42.372Z" style="fill:url(#_Linear9);fill-rule:nonzero;stroke:#fff;stroke-width:1px;"/><path d="M172.444,27.962l1.49,5.695l4.821,0l-3.901,3.52l1.49,5.695l-3.901,-3.52l-3.901,3.52l1.49,-5.695l-3.901,-3.52l4.821,-0l1.49,-5.695Z" style="fill:url(#_Linear10);stroke:#fff;stroke-width:1px;stroke-linecap:round;stroke-miterlimit:1.5;"/></g><defs><linearGradient id="_Linear1" x1="0" y1="0" x2="1" y2="0" gradientUnits="userSpaceOnUse" gradientTransform="matrix(0,42.372223,-42.372223,0,87.228667,0.5)"><stop offset="0" style="stop-color:#fff;stop-opacity:1"/><stop offset="0.35" style="stop-color:#feeef5;stop-opacity:1"/><stop offset="0.44" style="stop-color:#fee3ee;stop-opacity:1"/><stop offset="1" style="stop-color:#fc82af;stop-opacity:1"/></linearGradient><linearGradient id="_Linear2" x1="0" y1="0" x2="1" y2="0" gradientUnits="userSpaceOnUse" gradientTransform="matrix(0,42.372223,-42.372223,0,87.228667,0.5)"><stop offset="0" style="stop-color:#fff;stop-opacity:1"/><stop offset="0.35" style="stop-color:#feeef5;stop-opacity:1"/><stop offset="0.44" style="stop-color:#fee3ee;stop-opacity:1"/><stop offset="1" style="stop-color:#fc82af;stop-opacity:1"/></linearGradient><linearGradient id="_Linear3" x1="0" y1="0" x2="1" y2="0" gradientUnits="userSpaceOnUse" gradientTransform="matrix(0,42.372223,-42.372223,0,87.228667,0.5)"><stop offset="0" style="stop-color:#fff;stop-opacity:1"/><stop offset="0.35" style="stop-color:#feeef5;stop-opacity:1"/><stop offset="0.44" style="stop-color:#fee3ee;stop-opacity:1"/><stop offset="1" style="stop-color:#fc82af;stop-opacity:1"/></linearGradient><linearGradient id="_Linear4" x1="0" y1="0" x2="1" y2="0" gradientUnits="userSpaceOnUse" gradientTransform="matrix(0,42.372223,-42.372223,0,87.228667,0.5)"><stop offset="0" style="stop-color:#fff;stop-opacity:1"/><stop offset="0.35" style="stop-color:#feeef5;stop-opacity:1"/><stop offset="0.44" style="stop-color:#fee3ee;stop-opacity:1"/><stop offset="1" style="stop-color:#fc82af;stop-opacity:1"/></linearGradient><linearGradient id="_Linear5" x1="0" y1="0" x2="1" y2="0" gradientUnits="userSpaceOnUse" gradientTransform="matrix(0,42.372223,-42.372223,0,87.228667,0.5)"><stop offset="0" style="stop-color:#fff;stop-opacity:1"/><stop offset="0.35" style="stop-color:#feeef5;stop-opacity:1"/><stop offset="0.44" style="stop-color:#fee3ee;stop-opacity:1"/><stop offset="1" style="stop-color:#fc82af;stop-opacity:1"/></linearGradient><linearGradient id="_Linear6" x1="0" y1="0" x2="1" y2="0" gradientUnits="userSpaceOnUse" gradientTransform="matrix(0,42.372223,-42.372223,0,87.228667,0.5)"><stop offset="0" style="stop-color:#fff;stop-opacity:1"/><stop offset="0.35" style="stop-color:#feeef5;stop-opacity:1"/><stop offset="0.44" style="stop-color:#fee3ee;stop-opacity:1"/><stop offset="1" style="stop-color:#fc82af;stop-opacity:1"/></linearGradient><linearGradient id="_Linear7" x1="0" y1="0" x2="1" y2="0" gradientUnits="userSpaceOnUse" gradientTransform="matrix(0,42.372223,-42.372223,0,87.228667,0.5)"><stop offset="0" style="stop-color:#fff;stop-opacity:1"/><stop offset="0.35" style="stop-color:#feeef5;stop-opacity:1"/><stop offset="0.44" style="stop-color:#fee3ee;stop-opacity:1"/><stop offset="1" style="stop-color:#fc82af;stop-opacity:1"/></linearGradient><linearGradient id="_Linear8" x1="0" y1="0" x2="1" y2="0" gradientUnits="userSpaceOnUse" gradientTransform="matrix(0,42.372223,-42.372223,0,87.228667,0.5)"><stop offset="0" style="stop-color:#fff;stop-opacity:1"/><stop offset="0.35" style="stop-color:#feeef5;stop-opacity:1"/><stop offset="0.44" style="stop-color:#fee3ee;stop-opacity:1"/><stop offset="1" style="stop-color:#fc82af;stop-opacity:1"/></linearGradient><linearGradient id="_Linear9" x1="0" y1="0" x2="1" y2="0" gradientUnits="userSpaceOnUse" gradientTransform="matrix(0,42.372223,-42.372223,0,87.228667,0.5)"><stop offset="0" style="stop-color:#fff;stop-opacity:1"/><stop offset="0.35" style="stop-color:#feeef5;stop-opacity:1"/><stop offset="0.44" style="stop-color:#fee3ee;stop-opacity:1"/><stop offset="1" style="stop-color:#fc82af;stop-opacity:1"/></linearGradient><linearGradient id="_Linear10" x1="0" y1="0" x2="1" y2="0" gradientUnits="userSpaceOnUse" gradientTransform="matrix(0,42.372223,-42.372223,0,87.228667,0.5)"><stop offset="0" style="stop-color:#fff;stop-opacity:1"/><stop offset="0.35" style="stop-color:#feeef5;stop-opacity:1"/><stop offset="0.44" style="stop-color:#fee3ee;stop-opacity:1"/><stop offset="1" style="stop-color:#fc82af;stop-opacity:1"/></linearGradient></defs></svg>